<?xml version="1.0" encoding="UTF-8" standalone="no"?>
<!DOCTYPE svg PUBLIC "-//W3C//DTD SVG 1.1//EN" "http://www.w3.org/Graphics/SVG/1.1/DTD/svg11.dtd">
<svg version="1.1" xmlns="http://www.w3.org/2000/svg" xmlns:xlink="http://www.w3.org/1999/xlink" preserveAspectRatio="xMidYMid meet" viewBox="185.23667853978364 529.756029375642 307.26151014877905 99.44835812510303" width="303.26" height="95.45"><defs><path d="M262.88 576.42C263.1 583.86 263.42 592.49 263.83 602.28C263.82 602.28 263.71 602.28 263.69 602.28C262.56 595 261.45 588.52 260.36 582.85C259.32 577.1 258.16 571.52 256.89 566.09C256.4 563.88 253.93 552.83 249.48 532.94L239.62 532.94L239.62 624.02L249.14 624.02C249.14 613.75 249.14 608.04 249.14 606.9C249.14 603.66 249.09 599.93 249 595.72C248.96 591.43 248.84 586.66 248.66 581.39C248.53 577.35 248.37 573.38 248.19 569.49C248.05 565.53 247.87 560.83 247.64 555.41C247.66 555.41 247.76 555.41 247.78 555.41C248.96 562.86 250.07 569.45 251.11 575.2C252.2 580.87 253.36 586.33 254.58 591.6C255.07 593.76 257.55 604.56 261.99 624.02L271.92 624.02L271.92 532.94L262.4 532.94L262.4 550.79C262.51 561.07 262.67 569.62 262.88 576.42ZM290.51 583.09C292.72 583.09 293.94 583.09 294.19 583.09C297 583.09 298.86 584.15 299.76 586.25C300.72 588.28 301.19 591.88 301.19 597.06C301.19 600.06 300.99 602.69 300.58 604.95C300.22 607.22 299.45 608.8 298.27 609.69C297.72 610.09 297.07 610.38 296.29 610.54C295.57 610.62 294.32 610.66 292.55 610.66C292.42 610.66 291.74 610.66 290.51 610.66L290.51 583.09ZM290.51 546.3C293.17 546.3 294.64 546.3 294.93 546.3C296.98 546.38 298.34 547.23 299.02 548.85C299.74 550.47 300.1 553.1 300.1 556.74C300.1 561.52 299.76 564.8 299.08 566.58C298.49 567.96 297.68 568.85 296.63 569.25C295.59 569.57 294.14 569.74 292.28 569.74C292.16 569.74 291.57 569.74 290.51 569.74L290.51 546.3ZM305.82 620.13C307.81 617.54 309.31 613.37 310.31 607.62C310.76 604.55 310.99 600.82 310.99 596.45C310.99 590.3 310.4 585.4 309.22 581.76C308.04 578.12 306.16 575.97 303.57 575.32C303.57 575.3 303.57 575.1 303.57 575.08C305.93 573.54 307.54 571.15 308.4 567.92C309.26 564.6 309.69 560.63 309.69 556.01C309.69 552.45 309.51 549.42 309.15 546.91C308.83 544.32 308.17 541.89 307.18 539.62C305.95 536.87 304.48 535.09 302.76 534.28C301.03 533.39 298.9 532.94 296.36 532.94C295.34 532.94 290.21 532.94 280.99 532.94L280.99 624.02L297.79 624.02C301.84 623.16 304.52 621.86 305.82 620.13ZM327.69 600.95L338.85 600.95L341.37 624.02L351.57 624.02L340.01 532.94L327.15 532.94L314.98 624.02L325.18 624.02L327.69 600.95ZM332.86 551.4C332.88 551.17 332.99 549.32 333 549.09C333.04 547.55 333.16 545.53 333.34 543.02C333.35 543.02 333.46 543.02 333.48 543.02C333.66 545.53 333.77 547.55 333.82 549.09C333.83 549.32 333.94 551.17 333.95 551.4C334.22 556.01 334.5 559.46 334.77 561.72C334.94 563.45 335.8 572.07 337.35 587.59L329.19 587.59L332.05 561.72C332.41 557.92 332.68 554.48 332.86 551.4ZM385.42 559.66C385.42 556.18 385.3 552.98 385.08 550.06C384.85 547.15 384.26 544.19 383.31 541.2C382.4 538.2 380.9 535.73 378.82 533.79C376.78 531.77 374.03 530.76 370.59 530.76C365.6 530.76 361.86 532.82 359.37 536.95C356.87 541 355.63 546.95 355.63 554.8C355.63 559.82 356.44 564.47 358.07 568.77C359.25 571.44 360.57 573.83 362.02 575.93C363.52 578.03 365.49 580.5 367.94 583.34C370.29 586.09 372.02 588.24 373.11 589.77C374.37 591.31 375.33 593.05 375.96 595C376.6 596.94 376.91 599.21 376.91 601.8C376.91 608.92 374.94 612.48 371 612.48C368.87 612.48 367.32 611.19 366.37 608.6C365.46 606.01 365.01 602.2 365.01 597.18C365.01 596.82 365.01 595.04 365.01 591.84L355.49 591.84C355.49 595.85 355.49 598.07 355.49 598.52C355.49 602.73 355.76 606.53 356.31 609.93C356.89 613.25 357.8 616.13 359.03 618.55C360.25 620.98 361.86 622.84 363.86 624.14C365.85 625.52 368.23 626.2 371 626.2C375.76 626.2 379.57 623.94 382.42 619.4C385.28 614.87 386.71 608.39 386.71 599.97C386.71 595.93 386.39 592.45 385.76 589.53C385.12 586.54 384.01 583.66 382.42 580.91C381.79 579.78 380.95 578.52 379.91 577.14C378.91 575.77 377.91 574.47 376.91 573.26C375.92 571.96 374.94 570.75 373.99 569.62C373.04 568.48 371.99 567.27 370.86 565.97C370.85 565.96 370.74 565.86 370.72 565.85C368.87 563.67 367.51 561.76 366.64 560.14C365.83 558.44 365.42 556.06 365.42 552.98C365.42 549.98 365.87 547.84 366.78 546.54C367.69 545.17 368.98 544.48 370.66 544.48C372.92 544.48 374.42 545.85 375.15 548.61C375.87 551.36 376.23 555.37 376.23 560.63C376.85 560.63 379.91 560.63 385.42 560.63C385.42 560.05 385.42 559.72 385.42 559.66ZM406.55 612C406.27 612 406.02 612 405.8 612C405.16 612 404.62 611.83 404.16 611.51C403.71 611.11 403.44 610.46 403.35 609.57C403.35 606.73 403.35 592.57 403.35 567.07L407.09 567.07L407.09 555.53L403.35 555.53L403.35 536.71L394.44 536.71L394.44 555.53L390.9 555.53L390.9 567.07L394.51 567.07C394.51 594.9 394.51 610.36 394.51 613.45C394.51 617.74 395.25 620.74 396.75 622.44C398.25 624.06 400.2 624.87 402.6 624.87C403.78 624.87 405.28 624.67 407.09 624.26C407.09 623.44 407.09 619.31 407.09 611.88C406.91 611.9 406.73 611.94 406.55 612ZM438.06 614.43C438.06 610.38 438.06 578.03 438.06 573.99C438.06 570.99 437.9 568.36 437.58 566.09C437.31 563.75 436.74 561.64 435.88 559.78C435.02 557.92 433.73 556.46 432 555.41C430.33 554.27 428.13 553.71 425.41 553.71C422.78 553.71 420.58 554.23 418.81 555.29C417.04 556.26 415.66 557.71 414.66 559.66C413.66 561.6 412.96 563.91 412.55 566.58C412.19 569.17 412.01 572.25 412.01 575.81C412.85 575.81 419.6 575.81 420.44 575.81C420.44 572.33 420.76 569.82 421.39 568.28C422.03 566.66 423.25 565.85 425.07 565.85C426.38 565.85 427.36 566.09 427.99 566.58C428.63 566.98 429.03 567.92 429.22 569.37C429.35 570.34 429.42 571.23 429.42 572.04C429.42 573.99 429.06 575.65 428.33 577.02C427.61 578.32 426.45 579.57 424.86 580.79C424.45 581.11 424.14 581.35 423.91 581.52C421.78 583.05 420.08 584.39 418.81 585.52C417.54 586.66 416.34 588.07 415.2 589.77C414.12 591.47 413.26 593.62 412.62 596.21C412.03 598.72 411.74 601.76 411.74 605.32C411.74 612.36 412.55 617.54 414.18 620.86C415.82 624.18 418.42 625.84 422.01 625.84C423.46 625.84 424.86 625.07 426.22 623.53C427.49 622.16 428.67 619.97 429.76 616.98C429.77 616.98 429.88 616.98 429.9 616.98C429.9 617.22 429.9 617.54 429.9 617.95C429.85 618.51 429.83 618.84 429.83 618.92C429.83 620.86 430.03 622.56 430.44 624.02C431 624.02 433.79 624.02 438.81 624.02C438.31 619.67 438.06 616.48 438.06 614.43ZM429.15 598.76C429.15 600.95 429.1 602.85 429.01 604.47C428.97 606.01 428.81 607.5 428.54 608.96C428.26 610.34 427.81 611.47 427.18 612.36C426.59 613.25 425.77 613.7 424.73 613.7C423.19 613.7 422.1 612.97 421.46 611.51C420.87 609.97 420.58 607.79 420.58 604.95C420.58 603.17 420.67 601.59 420.85 600.22C421.08 598.76 421.48 597.59 422.07 596.7C423.16 595.16 424.79 593.13 426.97 590.62C427.92 589.49 428.67 588.6 429.22 587.95C429.22 588.45 429.22 590.92 429.22 595.36C429.2 596.49 429.18 597.63 429.15 598.76ZM459.48 612C459.21 612 458.96 612 458.73 612C458.1 612 457.55 611.83 457.1 611.51C456.65 611.11 456.38 610.46 456.29 609.57C456.29 606.73 456.29 592.57 456.29 567.07L460.03 567.07L460.03 555.53L456.29 555.53L456.29 536.71L447.38 536.71L447.38 555.53L443.84 555.53L443.84 567.07L447.44 567.07C447.44 594.9 447.44 610.36 447.44 613.45C447.44 617.74 448.19 620.74 449.69 622.44C451.18 624.06 453.13 624.87 455.54 624.87C456.72 624.87 458.21 624.67 460.03 624.26C460.03 623.44 460.03 619.31 460.03 611.88C459.84 611.9 459.66 611.94 459.48 612ZM463.72 603.13C463.72 603.86 463.72 604.39 463.72 604.71C463.72 608.92 464.13 612.44 464.94 615.28C465.81 618.11 466.87 620.29 468.14 621.83C469.41 623.29 470.75 624.3 472.15 624.87C473.56 625.52 474.92 625.84 476.24 625.84C478.82 625.84 480.97 625.31 482.7 624.26C484.47 623.21 485.83 621.79 486.78 620.01C487.78 618.15 488.48 616.08 488.89 613.82C489.29 611.47 489.5 608.92 489.5 606.17C489.5 604.71 489.45 603.17 489.36 601.55C489.32 600.42 489.07 599.21 488.61 597.91C488.21 596.53 487.68 595.24 487.05 594.02C486.46 592.73 485.83 591.55 485.15 590.5C484.51 589.45 483.9 588.64 483.31 588.07C482.83 587.49 480.43 584.58 476.1 579.33C475.98 579.18 475.91 579.1 475.9 579.09C474.85 577.79 474.06 576.62 473.51 575.57C473.02 574.51 472.77 573.14 472.77 571.44C472.77 569.57 473.11 568.2 473.79 567.31C474.47 566.34 475.37 565.85 476.51 565.85C477.96 565.85 479 566.62 479.64 568.16C480.27 569.7 480.59 572.45 480.59 576.42C481.47 576.42 488.55 576.42 489.43 576.42C489.43 561.28 485.33 553.71 477.12 553.71C472.9 553.71 469.64 555.16 467.33 558.08C465.06 560.91 463.92 565 463.92 570.34C463.92 575.04 464.54 579.09 465.76 582.49C467.03 585.89 468.84 589.04 471.2 591.96C471.69 592.55 475.55 597.31 476.03 597.91C476.35 598.31 476.62 598.64 476.85 598.88C477.94 600.1 478.77 601.23 479.36 602.28C480 603.33 480.34 604.59 480.38 606.05C480.47 606.61 480.52 607.18 480.52 607.75C480.52 609.45 480.16 610.86 479.43 612C478.71 613.13 477.8 613.7 476.71 613.7C475.35 613.7 474.31 613.21 473.58 612.24C472.86 611.19 472.49 608.8 472.49 605.07C472.49 603.94 472.54 602.73 472.63 601.43C472.04 601.43 469.09 601.43 463.79 601.43C463.77 602.08 463.75 602.65 463.72 603.13Z" id="aqJK2UsVF"></path><path d="M218.48 530.76C223.92 530.76 228.3 535.14 228.3 540.58C228.3 548.16 228.3 608.8 228.3 616.38C228.3 621.82 223.92 626.2 218.48 626.2C216.24 626.2 198.3 626.2 196.06 626.2C190.62 626.2 186.24 621.82 186.24 616.38C186.24 608.8 186.24 548.16 186.24 540.58C186.24 535.14 190.62 530.76 196.06 530.76C200.54 530.76 216.24 530.76 218.48 530.76Z" id="azSWAnYi"></path><path d="M212.94 548.57C213.62 548.97 213.97 549.3 214.66 549.74C216.48 550.9 218.71 552.94 218.43 559.97C218.95 561.5 219.18 564.5 219.65 565.46C220.58 567.35 221.23 568.58 221.51 570.34C221.51 570.34 221.78 573.11 222.14 573.31C224.01 573.74 223.47 573.93 223.73 574.27C224.03 574.63 225.12 574.62 225.12 575.63C225.5 576.14 225.8 576.65 225.99 577.2C225.99 573.55 225.99 544.31 225.99 540.66C225.99 536.48 222.61 533.09 218.45 533.09C217.72 533.09 211.96 533.09 211.23 533.09C212.39 533.51 213.05 534 213.43 534.77C214.36 534.85 215.45 536.92 213.74 540.01C214.49 540.53 213.91 541.3 213.37 542.18C213.2 542.46 213.03 542.96 212.53 542.93C211.85 544.33 211.07 545.65 210.47 545.73C210.3 545.95 210.17 546.55 210.44 546.82C211.31 547.22 212.37 547.74 212.91 548.25C212.92 548.32 212.94 548.54 212.94 548.57Z" id="cSb0fOah"></path><path d="M219.57 623.79C222.87 621.77 220.83 617.96 220.2 615.71C220.21 615.68 220.31 615.37 220.32 615.33C220.49 615.02 220.14 614.3 220.14 614.3C219.72 613.96 219.63 612.09 219.41 611.22C219.06 609.83 220.04 607.38 220.04 606.55C220.04 605.72 219.41 604.58 218.28 603.14C218 602.82 217.17 595.73 216.43 593.93C215.4 591.45 215.09 591.85 213.86 588.89C212.93 586.81 213.66 583.75 211.54 576.65C211.59 576.6 211.97 576.25 212.02 576.2C212.02 576.2 210.33 570.02 209.77 568.33C209.24 566.64 208.24 566.53 208.24 566.53C208.24 566.44 208.29 565.74 208.3 565.66C208.38 565.39 210.36 560.24 210.53 560.07C210.54 559.97 213.39 558.01 213.43 558.31C213.66 559.57 214.77 565.98 215.25 566.99C215.72 568.02 217.37 571.16 218.12 573.11C215.19 573.83 212.99 576.49 212.99 579.65C212.99 583.37 216 586.4 219.72 586.4C222.57 586.4 225.03 584.63 226.01 582.14C226.01 585.55 226 612.9 225.99 616.31C225.99 620.1 223.27 623.22 219.64 623.77C219.63 623.77 219.58 623.78 219.57 623.79Z" id="a2S317CnnB"></path><path d="M205.98 538.52C205.56 538.57 204.7 538.17 204.99 540.24C204.99 540.24 205.15 541.63 205.7 541.39C205.27 544.41 205.61 545.16 203.61 545.38C203.18 545.42 202.66 545.45 202.01 545.48C201.99 545.51 201.83 545.73 201.81 545.76C199.07 546.02 197.72 545.85 195.95 548.18C195.28 549.07 194.55 550.33 193.66 552.13C193.66 552.13 192.85 554.14 192.6 554.97C191.82 556.62 189.9 560.26 189.33 562.6C189.14 563.4 188.79 563.64 189.3 564.79C190.05 566.45 188.8 566.89 193.08 566.76C193.08 566.86 193.08 567.65 193.08 567.75C193.08 567.75 191.94 568.73 191.69 569.31C191.46 569.91 190.8 572.85 190.83 574.25C190.91 577.89 193.88 580.94 194.75 584.57C194.95 584.59 196.54 584.82 196.74 584.84C197.81 587.32 202.52 593.99 203.61 595.07C203.62 595.08 203.64 595.1 203.66 595.11C203.9 595.74 205.12 596.53 205.82 597.31C206.25 597.73 208.24 599.88 210.88 601.92C211.85 602.67 212.9 603.41 213.99 604.05C213.96 604.03 214.63 605.38 214.97 606.49C213.62 607.58 216.25 609.58 217.05 612.89C217.09 613.33 216.28 613.78 217.49 614.87C217.42 619.86 215.89 622.48 218.45 623.86C216.2 623.86 198.2 623.86 195.95 623.86C191.86 623.77 188.56 620.42 188.56 616.31C188.56 608.75 188.56 548.22 188.56 540.66C188.56 536.52 191.86 533.19 195.95 533.09C196.81 533.09 201.12 533.09 208.87 533.09C207 534.44 206.04 536.24 205.98 538.52Z" id="c1YoqIm3kL"></path></defs><g><g><use xlink:href="#aqJK2UsVF" opacity="1" fill-opacity="1"></use><g><use xlink:href="#aqJK2UsVF" opacity="1" fill-opacity="0" stroke="#000000" stroke-width="1" stroke-opacity="0"></use></g></g><g><use xlink:href="#azSWAnYi" opacity="1" fill="#ffffff" fill-opacity="1"></use><g><use xlink:href="#azSWAnYi" opacity="1" fill-opacity="0" stroke="#000000" stroke-width="1" stroke-opacity="0"></use></g></g><g><use xlink:href="#cSb0fOah" opacity="1" fill-opacity="1"></use><g><use xlink:href="#cSb0fOah" opacity="1" fill-opacity="0" stroke="#000000" stroke-width="1" stroke-opacity="0"></use></g></g><g><use xlink:href="#a2S317CnnB" opacity="1" fill-opacity="1"></use><g><use xlink:href="#a2S317CnnB" opacity="1" fill-opacity="0" stroke="#000000" stroke-width="1" stroke-opacity="0"></use></g></g><g><use xlink:href="#c1YoqIm3kL" opacity="1" fill-opacity="1"></use><g><use xlink:href="#c1YoqIm3kL" opacity="1" fill-opacity="0" stroke="#000000" stroke-width="1" stroke-opacity="0"></use></g></g></g></svg>